REM DIRINDEX 1\2,1\3,1\4
REM DIRNAME cjc105,folder01,folder02,folder03
TITLE ""
FILE "DISC2Track10.mp3" MP3
  TRACK 01 AUDIO
    TITLE "0:"
    INDEX 01 00:00:00
  TRACK 02 AUDIO
    TITLE "4:cjc105_2239"
    INDEX 01 00:00:15
  TRACK 03 AUDIO
    TITLE "0:"
    INDEX 01 00:04:31
  TRACK 04 AUDIO
    TITLE "4:cjc105_2240"
    INDEX 01 00:05:01
  TRACK 05 AUDIO
    TITLE "0:"
    INDEX 01 00:09:06
  TRACK 06 AUDIO
    TITLE "2:cjc105_2241"
    INDEX 01 00:09:53
  TRACK 07 AUDIO
    TITLE "3:cjc105_2242"
    INDEX 01 00:11:11
  TRACK 08 AUDIO
    TITLE "0:"
    INDEX 01 00:12:32
  TRACK 09 AUDIO
    TITLE "2:cjc105_2243"
    INDEX 01 00:12:48
  TRACK 10 AUDIO
    TITLE "3:cjc105_2244"
    INDEX 01 00:14:29
  TRACK 11 AUDIO
    TITLE "0:"
    INDEX 01 00:15:70
  TRACK 12 AUDIO
    TITLE "2:cjc105_2245"
    INDEX 01 00:16:10
  TRACK 13 AUDIO
    TITLE "3:cjc105_2246"
    INDEX 01 00:17:37
  TRACK 14 AUDIO
    TITLE "0:"
    INDEX 01 00:19:15
  TRACK 15 AUDIO
    TITLE "2:cjc105_2247"
    INDEX 01 00:19:26
  TRACK 16 AUDIO
    TITLE "3:cjc105_2248"
    INDEX 01 00:20:67
  TRACK 17 AUDIO
    TITLE "0:"
    INDEX 01 00:22:05
  TRACK 18 AUDIO
    TITLE "2:cjc105_2249"
    INDEX 01 00:22:19
  TRACK 19 AUDIO
    TITLE "3:cjc105_2250"
    INDEX 01 00:23:53
  TRACK 20 AUDIO
    TITLE "0:"
    INDEX 01 00:25:29
  TRACK 21 AUDIO
    TITLE "2:cjc105_2251"
    INDEX 01 00:25:39
  TRACK 22 AUDIO
    TITLE "3:cjc105_2252"
    INDEX 01 00:27:00
  TRACK 23 AUDIO
    TITLE "0:"
    INDEX 01 00:28:39
  TRACK 24 AUDIO
    TITLE "2:cjc105_2253"
    INDEX 01 00:28:49
  TRACK 25 AUDIO
    TITLE "3:cjc105_2254"
    INDEX 01 00:30:08
  TRACK 26 AUDIO
    TITLE "0:"
    INDEX 01 00:31:61
  TRACK 27 AUDIO
    TITLE "2:cjc105_2255"
    INDEX 01 00:32:00
  TRACK 28 AUDIO
    TITLE "3:cjc105_2256"
    INDEX 01 00:33:24
  TRACK 29 AUDIO
    TITLE "0:"
    INDEX 01 00:34:63
  TRACK 30 AUDIO
    TITLE "2:cjc105_2257"
    INDEX 01 00:35:00
  TRACK 31 AUDIO
    TITLE "3:cjc105_2258"
    INDEX 01 00:36:46
  TRACK 32 AUDIO
    TITLE "0:"
    INDEX 01 00:37:57
  TRACK 33 AUDIO
    TITLE "2:cjc105_2259"
    INDEX 01 00:37:69
  TRACK 34 AUDIO
    TITLE "3:cjc105_2260"
    INDEX 01 00:39:27
  TRACK 35 AUDIO
    TITLE "0:"
    INDEX 01 00:40:40
  TRACK 36 AUDIO
    TITLE "2:cjc105_2261"
    INDEX 01 00:40:52
  TRACK 37 AUDIO
    TITLE "3:cjc105_2262"
    INDEX 01 00:42:18
  TRACK 38 AUDIO
    TITLE "0:"
    INDEX 01 00:44:36
  TRACK 39 AUDIO
    TITLE "2:cjc105_2263"
    INDEX 01 00:44:50
  TRACK 40 AUDIO
    TITLE "3:cjc105_2264"
    INDEX 01 00:45:73
  TRACK 41 AUDIO
    TITLE "0:"
    INDEX 01 00:47:21
  TRACK 42 AUDIO
    TITLE "2:cjc105_2265"
    INDEX 01 00:47:28
  TRACK 43 AUDIO
    TITLE "3:cjc105_2266"
    INDEX 01 00:49:37
  TRACK 44 AUDIO
    TITLE "0:"
    INDEX 01 00:50:72
  TRACK 45 AUDIO
    TITLE "2:cjc105_2267"
    INDEX 01 00:51:11
  TRACK 46 AUDIO
    TITLE "3:cjc105_2268"
    INDEX 01 00:52:49
  TRACK 47 AUDIO
    TITLE "0:"
    INDEX 01 00:54:74
  TRACK 48 AUDIO
    TITLE "2:cjc105_2269"
    INDEX 01 00:55:10
  TRACK 49 AUDIO
    TITLE "3:cjc105_2270"
    INDEX 01 00:56:39
  TRACK 50 AUDIO
    TITLE "0:"
    INDEX 01 00:59:12
  TRACK 51 AUDIO
    TITLE "2:cjc105_2271"
    INDEX 01 00:59:26
  TRACK 52 AUDIO
    TITLE "3:cjc105_2272"
    INDEX 01 01:00:66
  TRACK 53 AUDIO
    TITLE "0:"
    INDEX 01 01:02:61
  TRACK 54 AUDIO
    TITLE "2:cjc105_2273"
    INDEX 01 01:03:04
  TRACK 55 AUDIO
    TITLE "3:cjc105_2274"
    INDEX 01 01:04:60
  TRACK 56 AUDIO
    TITLE "0:"
    INDEX 01 01:06:47
  TRACK 57 AUDIO
    TITLE "2:cjc105_2275"
    INDEX 01 01:06:59
  TRACK 58 AUDIO
    TITLE "3:cjc105_2276"
    INDEX 01 01:08:40
  TRACK 59 AUDIO
    TITLE "0:"
    INDEX 01 01:10:02
  TRACK 60 AUDIO
    TITLE "2:cjc105_2277"
    INDEX 01 01:10:16
  TRACK 61 AUDIO
    TITLE "3:cjc105_2278"
    INDEX 01 01:11:58
  TRACK 62 AUDIO
    TITLE "0:"
    INDEX 01 01:13:10
  TRACK 63 AUDIO
    TITLE "2:cjc105_2279"
    INDEX 01 01:13:24
  TRACK 64 AUDIO
    TITLE "3:cjc105_2280"
    INDEX 01 01:14:72
  TRACK 65 AUDIO
    TITLE "0:"
    INDEX 01 01:16:44
  TRACK 66 AUDIO
    TITLE "2:cjc105_2281"
    INDEX 01 01:16:63
  TRACK 67 AUDIO
    TITLE "3:cjc105_2282"
    INDEX 01 01:18:11
  TRACK 68 AUDIO
    TITLE "0:"
    INDEX 01 01:19:54
  TRACK 69 AUDIO
    TITLE "2:cjc105_2283"
    INDEX 01 01:19:72
  TRACK 70 AUDIO
    TITLE "3:cjc105_2284"
    INDEX 01 01:21:51
  TRACK 71 AUDIO
    TITLE "0:"
    INDEX 01 01:23:38
  TRACK 72 AUDIO
    TITLE "2:cjc105_2285"
    INDEX 01 01:23:52
  TRACK 73 AUDIO
    TITLE "3:cjc105_2286"
    INDEX 01 01:25:02
  TRACK 74 AUDIO
    TITLE "0:"
    INDEX 01 01:26:68
  TRACK 75 AUDIO
    TITLE "2:cjc105_2287"
    INDEX 01 01:27:08
  TRACK 76 AUDIO
    TITLE "3:cjc105_2288"
    INDEX 01 01:28:45
  TRACK 77 AUDIO
    TITLE "0:"
    INDEX 01 01:31:14
  TRACK 78 AUDIO
    TITLE "2:cjc105_2289"
    INDEX 01 01:31:28
  TRACK 79 AUDIO
    TITLE "3:cjc105_2290"
    INDEX 01 01:33:33
  TRACK 80 AUDIO
    TITLE "0:"
    INDEX 01 01:35:39
  TRACK 81 AUDIO
    TITLE "2:cjc105_2291"
    INDEX 01 01:35:53
  TRACK 82 AUDIO
    TITLE "3:cjc105_2292"
    INDEX 01 01:37:13
  TRACK 83 AUDIO
    TITLE "0:"
    INDEX 01 01:38:57
  TRACK 84 AUDIO
    TITLE "2:cjc105_2293"
    INDEX 01 01:38:73
  TRACK 85 AUDIO
    TITLE "3:cjc105_2294"
    INDEX 01 01:40:21
  TRACK 86 AUDIO
    TITLE "0:"
    INDEX 01 01:41:42
  TRACK 87 AUDIO
    TITLE "2:cjc105_2295"
    INDEX 01 01:41:56
  TRACK 88 AUDIO
    TITLE "3:cjc105_2296"
    INDEX 01 01:43:17
  TRACK 89 AUDIO
    TITLE "0:"
    INDEX 01 01:45:45
  TRACK 90 AUDIO
    TITLE "2:cjc105_2297"
    INDEX 01 01:45:57
  TRACK 91 AUDIO
    TITLE "3:cjc105_2298"
    INDEX 01 01:47:09
  TRACK 92 AUDIO
    TITLE "0:"
    INDEX 01 01:48:38
  TRACK 93 AUDIO
    TITLE "2:cjc105_2299"
    INDEX 01 01:48:52
  TRACK 94 AUDIO
    TITLE "3:cjc105_2300"
    INDEX 01 01:50:04
  TRACK 95 AUDIO
    TITLE "0:"
    INDEX 01 01:54:33
  TRACK 96 AUDIO
    TITLE "2:cjc105_2301"
    INDEX 01 01:54:42
  TRACK 97 AUDIO
    TITLE "3:cjc105_2302"
    INDEX 01 01:56:08
  TRACK 98 AUDIO
    TITLE "0:"
    INDEX 01 01:58:17
  TRACK 99 AUDIO
    TITLE "2:cjc105_2303"
    INDEX 01 01:58:30
  TRACK 100 AUDIO
    TITLE "3:cjc105_2304"
    INDEX 01 01:59:44
  TRACK 101 AUDIO
    TITLE "0:"
    INDEX 01 02:00:67
  TRACK 102 AUDIO
    TITLE "2:cjc105_2305"
    INDEX 01 02:01:05
  TRACK 103 AUDIO
    TITLE "3:cjc105_2306"
    INDEX 01 02:02:60
  TRACK 104 AUDIO
    TITLE "0:"
    INDEX 01 02:04:60
  TRACK 105 AUDIO
    TITLE "2:cjc105_2307"
    INDEX 01 02:04:74
  TRACK 106 AUDIO
    TITLE "3:cjc105_2308"
    INDEX 01 02:06:32
  TRACK 107 AUDIO
    TITLE "0:"
    INDEX 01 02:08:09
  TRACK 108 AUDIO
    TITLE "2:cjc105_2309"
    INDEX 01 02:08:21
  TRACK 109 AUDIO
    TITLE "3:cjc105_2310"
    INDEX 01 02:09:42
  TRACK 110 AUDIO
    TITLE "0:"
    INDEX 01 02:11:23
  TRACK 111 AUDIO
    TITLE "2:cjc105_2311"
    INDEX 01 02:11:35
  TRACK 112 AUDIO
    TITLE "3:cjc105_2312"
    INDEX 01 02:12:44
  TRACK 113 AUDIO
    TITLE "0:"
    INDEX 01 02:13:65
